<?xml version="1.0" encoding="UTF-8"?>
<svg id="Layer_2" data-name="Layer 2" xmlns="http://www.w3.org/2000/svg" viewBox="0 0 363.6 121.2">
  <defs>
    <style>
      .cls-1 {
        fill: #fff;
      }

      .cls-2 {
        fill: #840029;
      }

      .cls-3 {
        fill: #fcb116;
      }
    </style>
  </defs>
  <g id="Logos">
    <g>
      <path class="cls-2" d="m45.06,75.63c-3.49.7-7.03,6.04-8.43,8.01-1,1.4,0,2.68-2.82,1.54-3.83-1.55-3.84-3.07-6.91-3.58-3.07-.51-2.82-1.28-4.35-3.33-1.54-2.05-2.3-3.07-2.3-4.61s-1.79-4.1-2.05-5.63c-.26-1.54-.69-2.23-2.56-3.58-1.71-1.24-3.33-2.3-4.61-3.58-1.28-1.28-4.86-5.12-6.14-6.14-1.28-1.02-1.54-3.33-1.54-3.33h32.77l1.28-48.38h27.14v21.25s2.21,1.3,5.89,2.82c3.55,1.46,7.78,3.04,11.78,4.1,4.29,1.14,3.05.89,7.08,1.37,4.35.51,10.33-.09,13.14-.6,2.82-.51,2.8-.52,4.85-.52s8.47,1.19,9.75.94c1.28-.26,2.62.19,2.62.19l.44,18.35s1.39,1.65,1.39,2.17-.03.95,1.25,3c1.28,2.05.43,2,.43,6.61,0,3.81,1.02,5.38,0,8.7-1.02,3.33,0,2.56-2.82,4.61-2.82,2.05-2.95,1.03-4.71,2.2-1.69,1.12-.56.7-2.71,2.66-2.28,2.07-2.05,2.05-3.07,3.58-1.02,1.54-13.31,8.19-14.59,10.24-1.28,2.05-2.05,1.02-3.07,4.1-1.02,3.07-.51,0-1.02,5.12-.51,5.12-.77,4.1.26,7.42,1.02,3.33,1.79,4.86,1.79,5.63s.77,1.28-1.28,1.28-1.95-.67-5.54-.67-2.66-.35-5.73-1.63c-3.07-1.28-5.38-3.58-7.68-5.89-2.3-2.3-1.21-1.2-2.56-4.61-1.04-2.63.79-2.64-1.6-5.03-2.11-2.11-4.8-4.96-5.31-6.24s-.74-2.48-2.05-4.35c-1.12-1.6-2.56-2.3-2.82-3.84-.26-1.54-4.25-8.69-6.7-9.47-2.67-.84-.56-.42-2.95-.84-2.93-.52-1.12-.28-3.94,0"/>
      <path class="cls-2" d="m91.93,121.2c-1.26,0-2.04-.2-2.67-.36-.62-.16-1.21-.31-2.87-.31-2.84,0-3.66-.23-5.21-1.06-.41-.22-.87-.47-1.67-.8-3.62-1.51-6.18-4.06-8.65-6.54-1.67-1.67-2.11-2.11-2.58-3.75-.11-.39-.26-.92-.64-1.88-.62-1.57-.6-2.66-.53-3.56-.08-.1-.21-.25-.41-.44-5.12-5.12-5.72-6.61-5.97-7.25-.13-.34-.25-.67-.37-1.01-.32-.91-.58-1.64-1.35-2.74-.28-.4-.63-.75-1-1.13-.83-.85-1.97-2.01-2.31-3.86-.45-1.55-3.45-6.42-4.75-7.2-.84-.27-1.3-.44-1.59-.57-.04,0-.09-.02-.15-.03l-1.51-.27c-.23-.04-.4-.07-.53-.1-.39.08-.86.16-1.63.25-1.37.36-3.43,2.48-6.13,6.3l-.34.48s-.05.16-.08.27c-.17.57-.55,1.91-1.99,2.6-1.5.73-3.01.23-4.31-.3-2.11-.86-3.31-1.75-4.19-2.4-.83-.62-1.14-.85-2.09-1.01-3.18-.53-4.29-1.51-5.58-3.5-.18-.28-.4-.61-.68-.99-1.69-2.25-2.9-3.87-2.9-6.41-.05-.28-.52-1.27-.8-1.87-.5-1.07-1.03-2.18-1.21-3.27-.11-.67-.12-.75-1.36-1.65l-.94-.67c-1.45-1.03-2.81-2-4.03-3.22-.37-.37-.94-.96-1.59-1.63-1.33-1.38-3.55-3.68-4.31-4.29-2.14-1.71-2.58-4.75-2.64-5.34l-.37-3.33h33.2L34.48,0h33.06v22.45c.95.48,2.33,1.14,4.03,1.84,4.27,1.76,8.11,3.1,11.4,3.97l1.41.38q2.03.54,3.87.75l1.38.16c3.81.45,9.46-.06,12.26-.57l.31-.06c2.63-.48,2.89-.52,5.07-.52,1.11,0,2.85.23,4.88.5,1.4.19,3.73.51,4.4.47,1.92-.35,3.7.19,4.04.3l2.01.66.47,19.45c1.29,1.71,1.42,2.57,1.42,3.24.07.16.26.56.79,1.42,1.3,2.08,1.25,3.26,1.06,5.01-.08.74-.18,1.67-.18,3.19,0,1.2.12,2.16.24,3.1.23,1.85.47,3.76-.37,6.49-.23.76-.34,1.26-.43,1.66-.5,2.31-1.29,2.89-3.42,4.44-2.03,1.48-3.14,1.81-4.19,2.05-.37.08-.4.09-.69.28-.2.13-.33.22-.43.3-.37.52-.81,1.07-1.93,2.09-1.57,1.42-1.66,1.57-2.1,2.27-.14.21-.29.46-.5.76-.76,1.14-2.4,2.23-7.27,5.28-2.44,1.53-6.51,4.08-7.33,4.98-.74,1.15-1.42,1.71-2.06,2.18-.07.05-.15.1-.22.17h0s-.16.21-.43,1.01c-.27.82-.47,1.31-.63,1.66,0,.07-.01.15-.02.24-.04.49-.11,1.27-.24,2.58-.11,1.1-.21,1.92-.29,2.57q-.2,1.65.34,3.41l.08.27c.43,1.4.81,2.46,1.12,3.31.47,1.3.76,2.12.8,2.99.29,1.23.1,2.24-.54,3.08-1.1,1.42-2.88,1.42-3.73,1.42Zm4.28-4.28h0s0,0,0,0Zm-22.13-10.08c.19.2.57.59.98,1,2.2,2.2,4.23,4.23,6.76,5.29,1.08.45,1.73.8,2.21,1.06.6.32.64.34,2.37.34,1.34,0,2.29.09,3,.2-.25-.71-.54-1.56-.84-2.56l-.08-.26c-.85-2.75-.89-3.19-.57-5.89.07-.62.17-1.4.27-2.45.13-1.26.19-2.01.23-2.48.08-.92.11-1.37.49-2.13.06-.11.17-.34.44-1.16.84-2.51,1.79-3.37,2.77-4.1.3-.22.38-.29.61-.64.96-1.53,3.53-3.24,9.17-6.78,2.06-1.29,4.85-3.04,5.57-3.69.12-.19.23-.35.32-.49.77-1.21,1.18-1.71,3.13-3.49.79-.72.96-.96,1.08-1.12.51-.71.95-1.12,1.99-1.81,1.12-.74,1.91-.96,2.7-1.14.44-.1.79-.18,1.91-.99.47-.34.89-.65,1.14-.84,0-.02,0-.03.01-.05.1-.46.25-1.16.56-2.17.46-1.5.35-2.38.15-3.98-.13-1.01-.28-2.26-.28-3.84,0-1.83.13-3.03.21-3.82.03-.29.07-.65.07-.78h0s-.07-.13-.25-.42c-1.18-1.89-1.57-2.9-1.67-3.88-.18-.27-.47-.64-.72-.94l-.68-.81-.4-16.63c-1.07.03-2.63-.16-5.35-.52-1.5-.2-3.38-.45-4.09-.45q-1.7,0-4,.42l-.31.06c-3.06.56-9.32,1.18-14.03.63l-1.36-.16c-2.22-.25-2.35-.28-4.74-.92l-1.4-.37c-3.55-.94-7.64-2.36-12.15-4.22-3.83-1.58-6.17-2.95-6.26-3l-1.48-.87V6h-21.22l-1.28,48.38H8.92c.79.79,1.71,1.74,2.73,2.8.62.64,1.15,1.2,1.51,1.55.86.86,1.98,1.65,3.27,2.57l.98.7c2.14,1.55,3.31,2.83,3.76,5.52.06.3.45,1.14.72,1.69.67,1.43,1.37,2.91,1.37,4.43,0,.49.42,1.09,1.7,2.81.38.51.67.94.91,1.33.15.23.33.51.41.59-.01-.02.22.1,1.12.25,2.37.4,3.6,1.3,4.68,2.11.59.43,1.15.85,2.03,1.28.03-.04.06-.08.09-.13l.32-.45c2.88-4.09,6.08-7.98,9.96-8.75l.29-.04c.81-.08,1.11-.15,1.3-.19.98-.22,1.45-.14,2.71.09l1.47.26c.7.12,1.04.18,1.57.46,0,0,.14.07,1.05.35,4.11,1.3,8.42,9.83,8.75,11.84.05.08.42.45.68.72.48.49,1.07,1.09,1.63,1.9,1.24,1.77,1.71,3.11,2.09,4.18.09.26.18.52.29.78,0,.01.61,1.2,4.64,5.23,2,2,2.3,3.45,2.15,5.15-.03.38-.04.47.12.89.48,1.23.7,1.97.83,2.42.01.05.02.09.04.13Zm23.72-10.6s-.01.02-.02.03c0,0,.01-.02.02-.03Zm-42.11-9.8s0,.02,0,.03c0,0,0-.02,0-.03Zm51.68-3.72s-.01.02-.02.03c0,0,.01-.02.02-.03Zm11.31-28.72h0s0,0,0,0Zm-2.2-24.61s-.03,0-.04,0c.01,0,.03,0,.04,0Z"/>
      <path class="cls-3" d="m45.15,75.62c-3.47.7-7,6.02-8.4,7.98-.99,1.39,0,2.67-2.8,1.53-3.81-1.55-3.83-3.06-6.89-3.57s-2.8-1.28-4.34-3.32c-1.53-2.04-2.29-3.06-2.29-4.59s-1.78-4.08-2.04-5.61c-.26-1.53-.69-2.22-2.55-3.57-1.7-1.23-3.32-2.3-4.59-3.57-1.28-1.28-4.85-5.1-6.12-6.12-1.27-1.02-1.53-3.32-1.53-3.32h32.64l1.28-48.2h27.03v21.17s2.2,1.3,5.86,2.8c3.54,1.46,7.75,3.03,11.73,4.08,4.27,1.13,3.04.89,7.05,1.36,4.34.51,10.29-.09,13.09-.6,2.8-.51,2.79-.52,4.83-.52s8.43,1.19,9.71.93c1.28-.26,2.61.19,2.61.19l.44,18.27s1.39,1.65,1.39,2.16-.03.95,1.24,2.99c1.28,2.04.43,1.99.43,6.58,0,3.79,1.02,5.36,0,8.67-1.02,3.32,0,2.55-2.8,4.59-2.81,2.04-2.94,1.03-4.69,2.2-1.68,1.12-.56.7-2.7,2.65-2.27,2.07-2.04,2.04-3.06,3.57-1.02,1.53-13.26,8.16-14.54,10.2-1.28,2.04-2.04,1.02-3.06,4.08-1.02,3.06-.51,0-1.02,5.1-.51,5.1-.77,4.08.26,7.39,1.02,3.32,1.79,4.85,1.79,5.61s.76,1.27-1.28,1.27-1.94-.67-5.51-.67-2.65-.35-5.71-1.62-5.35-3.57-7.65-5.86c-2.29-2.3-1.21-1.19-2.55-4.59-1.04-2.62.78-2.62-1.6-5.01-2.1-2.1-4.78-4.94-5.29-6.22-.51-1.27-.73-2.47-2.04-4.33-1.11-1.59-2.55-2.3-2.8-3.83-.26-1.53-4.23-8.66-6.67-9.43-2.66-.84-.56-.42-2.94-.84-2.92-.52-1.12-.28-3.92,0"/>
      <path class="cls-1" d="m110.46,45.96l.95.56c.31.19.4.29.42,1.6v16.76c-.47.45-1.66,1.19-2.62,1.19s-2.25-.75-2.78-1.22v-16.71c-.01-1.29.06-1.47.35-1.65l.9-.56v-9.55h-9.17v-5.49l-.83-.57c-6.44-4.45-13.68-6.52-22.79-6.52-7.45,0-12.62,1.28-16.27,4.03-3.44,2.61-5.16,5.1-6.03,8.21h-9.89l-2.52,9.85-2.47-9.85h-18.38v9.74l.9.57c.31.2.39.39.38,1.75v17.43s0,.35,0,.35c.01,1.35-.07,1.55-.38,1.75l-.9.57v9.74h15.56v-3.08l.81,3.08h6.72l.52-2.09v2.09h9.71v3.74l.73.58c5.52,4.38,13.11,6.6,22.55,6.6,12.28,0,19.85-3.95,22.9-12.01,2.52.96,5.22,1.13,7.5,1.13h.95c.43,0,.91.01,1.43.01,7.29,0,11.28-.77,13.36-2.58,3.72-3.26,4.1-7,4.2-11.24v-15.95c-.01-1.39.08-1.44.43-1.63l.99-.55v-9.62h-17.23v9.59h0Zm-65,29.5v-5.83c1.31-.99,1.3-2.43,1.29-3.71v-11.13h-1.16l-5.15,20.68h-2.8l-5.41-20.68h-1.15v11.14c-.01,1.28-.02,2.71,1.29,3.71v5.83h-10.52v-5.83c1.31-.99,1.3-2.43,1.29-3.71v-17.41s0-.33,0-.33c0-1.28.02-2.71-1.29-3.71v-5.83h13.89l3.9,15.57h1.02l3.99-15.57h13.49v5.83c-1.31.99-1.3,2.43-1.29,3.71v17.41s0,.33,0,.33c0,1.28-.02,2.71,1.29,3.71v5.83h-12.7Zm52.39-8.2c0,8.2-2.27,19.11-21.93,19.11-8.73,0-15.71-1.98-20.76-5.87v-3.85h4.18v-7.67l-.28-.18c-.98-.61-1.02-1.49-1.01-2.88v-.33h13.83v.36c0,3.14,0,5.41.62,6.67.72,1.36,2.22,2.24,3.82,2.24,2.74,0,4.17-2.58,4.17-5.13,0-6.12-3.68-7-8.35-8.11l-.96-.23c-6-1.48-10.35-2.92-13.13-5.66v-7.57c-.01-1.39.03-2.27,1.01-2.88l.28-.18v-7.67h-4.49c.69-2.96,2.12-5.13,5.29-7.53,3.18-2.4,7.87-3.52,14.75-3.52,8.45,0,15.17,1.88,21.1,5.9v12.96h-15.9v-.5c0-2.39,0-6.85-4.24-6.85-2.49,0-4.17,1.81-4.17,4.51,0,1.27.15,2.6,1.26,3.7.86.91,2.68,1.75,5.43,2.5,4.3,1.14,10.18,2.7,13.83,5.14,2.26,1.53,3.58,3.17,4.31,5.35.87,2.31,1.33,5.03,1.33,7.89v.27h0Zm-38.46-4.27v-3.23c2.34,1.39,5.12,2.37,8.24,3.23h-8.24Zm15.03,2.88v-1.13c2.65.84,3.57,1.87,3.57,4.91,0,.03-.02,2.61-1.65,2.61-.66,0-1.32-.37-1.57-.86-.36-.71-.35-3.16-.35-5.53h0Zm16.65-15.74c-1.98-.97-4.21-1.78-6.41-2.46h6.41c0,.14,0,.29,0,.46v.34s0,1.66,0,1.66h0Zm-13.49-5.48v1c-1.61-.54-2.5-1.05-2.83-1.4-.4-.4-.54-.89-.54-1.94,0-1.32.55-1.99,1.65-1.99,1.04,0,1.72.3,1.72,4.32h0Zm35.41-5.69h12.18v5.63c-1.44.98-1.43,2.46-1.43,3.67v15.92c-.08,3.84-.37,6.76-3.33,9.36-2.24,1.96-9.36,1.96-11.7,1.96-.51,0-.98,0-1.41,0h-.97c-2.49,0-5.52-.22-8-1.63.48-1.98.72-4.18.72-6.61v-.27c0-3-.49-5.88-1.4-8.29-.72-2.14-2.02-3.88-4.05-5.42v-5.03c0-.59,0-1.21-.12-1.8h3.73v-7.46h7.98v5.65c-1.27.97-1.26,2.37-1.25,3.61v17.2c0,1.2,3.01,3.23,5.3,3.23s5.15-2,5.15-3.23v-16.89s-.01-.4-.01-.4c-.02-1.22-.05-2.59-1.37-3.53v-5.64h0Z"/>
      <path class="cls-2" d="m130.02,34.27h-29.24v-4.43l-1.8-1.24c-6.84-4.72-14.48-6.92-24.07-6.92-5.01,0-12.29.46-17.63,4.49-3.26,2.47-5.15,4.94-6.26,7.76h-10.05l-.76,2.94-.74-2.94h-22.38v13.23l1.29.81c0,.08,0,.17,0,.24v17.45s0,.37,0,.37c0,.08,0,.16,0,.24l-1.29.81v13.23h33.31v2.58l1.58,1.25c5.93,4.7,13.99,7.08,23.95,7.08,12.29,0,20.38-3.88,24.18-11.54,2.27.56,4.5.67,6.3.67h.94c.44,0,.92,0,1.44,0,7.99,0,12.29-.91,14.85-3.14,4.4-3.86,4.86-8.28,4.96-12.84v-15.74s0-.33,0-.33v-.05l1.43-.79v-13.19h0Zm-20.89,13.61l.54.32s0,.08,0,.11v15.47c-.2.1-.39.17-.49.19-.1-.01-.25-.06-.41-.14v-15.56c0-.05,0-.11,0-.17l.36-.22h0Zm18.57-1.89l-.99.55c-.35.19-.45.25-.44,1.63v.31s0,15.64,0,15.64c-.09,4.24-.47,7.98-4.2,11.24-2.07,1.81-6.06,2.58-13.36,2.58-.51,0-.99,0-1.43,0h-.95c-2.29,0-4.98-.17-7.5-1.13-3.05,8.06-10.62,12.01-22.9,12.01-9.44,0-17.03-2.22-22.55-6.6l-.73-.58v-3.74h-9.71v-2.09l-.52,2.09h-6.72l-.81-3.08v3.08h-15.56v-9.74l.9-.57c.32-.2.39-.39.38-1.75v-.35s0-17.43,0-17.43c.01-1.35-.07-1.55-.38-1.75l-.9-.57v-9.74h18.38l2.47,9.85,2.52-9.85h9.89c.87-3.11,2.59-5.6,6.03-8.21,3.65-2.75,8.81-4.03,16.27-4.03,9.11,0,16.35,2.07,22.79,6.52l.83.57v5.49h9.17v9.55l-.9.56c-.29.18-.36.37-.35,1.65v.34s0,16.36,0,16.36c.53.47,1.81,1.22,2.78,1.22s2.15-.74,2.63-1.19v-16.76c-.03-1.31-.12-1.42-.43-1.6l-.95-.56v-9.59h17.23v9.62h0Z"/>
      <path class="cls-2" d="m91.07,47.68h-6.41c2.19.68,4.42,1.49,6.41,2.46v-2c0-.17,0-.32,0-.46h0Z"/>
      <path class="cls-2" d="m76.34,72.27c1.63,0,1.65-2.58,1.65-2.61,0-3.04-.92-4.07-3.57-4.91v1.13c0,2.37,0,4.81.35,5.53.26.49.92.86,1.57.86h0Z"/>
      <path class="cls-2" d="m74.22,42.33c0,1.05.14,1.54.54,1.94.32.34,1.22.86,2.83,1.4v-1c0-4.02-.68-4.32-1.72-4.32-1.09,0-1.65.67-1.65,1.99h0Z"/>
      <path class="cls-2" d="m59.39,63h8.24c-3.11-.86-5.9-1.84-8.24-3.23v3.23h0Z"/>
      <path class="cls-2" d="m114.36,48.15v.4s.01,16.89.01,16.89c0,1.23-2.88,3.23-5.15,3.23s-5.3-2.03-5.3-3.23v-17.2c-.01-1.24-.02-2.64,1.25-3.61v-5.65h-7.98v7.46h-3.73c.13.6.13,1.22.13,1.8v.32s0,4.71,0,4.71c2.04,1.54,3.34,3.28,4.05,5.42.92,2.42,1.4,5.29,1.4,8.29v.27c0,2.43-.24,4.62-.72,6.61,2.48,1.41,5.51,1.63,8,1.63h.97c.43,0,.9,0,1.41,0,2.34,0,9.46,0,11.7-1.96,2.96-2.59,3.25-5.52,3.33-9.36v-15.92c0-1.2-.02-2.68,1.42-3.67v-5.63h-12.18v5.64c1.32.95,1.35,2.32,1.37,3.53h0Z"/>
      <path class="cls-2" d="m92.22,53.75c-3.65-2.43-9.53-3.99-13.83-5.14-2.75-.75-4.58-1.59-5.43-2.5-1.11-1.11-1.26-2.44-1.26-3.7,0-2.7,1.68-4.51,4.17-4.51,4.24,0,4.24,4.45,4.24,6.85v.5h15.9v-12.96c-5.94-4.02-12.65-5.9-21.1-5.9-6.88,0-11.56,1.12-14.75,3.52-3.16,2.39-4.6,4.57-5.29,7.53h4.49v7.67l-.28.18c-.98.61-1.02,1.49-1.01,2.88v.34s0,7.23,0,7.23c2.78,2.75,7.13,4.18,13.13,5.66l.96.23c4.67,1.11,8.35,1.98,8.35,8.11,0,2.55-1.43,5.13-4.17,5.13-1.6,0-3.1-.88-3.82-2.24-.63-1.26-.63-3.53-.62-6.67v-.36h-13.83v.33c-.01,1.39.03,2.27,1.01,2.88l.28.18v7.67h-4.18v3.85c5.05,3.9,12.03,5.87,20.76,5.87,19.65,0,21.93-10.91,21.93-19.11v-.27c0-2.86-.46-5.59-1.33-7.89-.73-2.18-2.05-3.82-4.31-5.35h0Z"/>
      <path class="cls-2" d="m58.16,69.63c-1.31-.99-1.3-2.43-1.29-3.71v-.33s0-17.41,0-17.41c0-1.28-.02-2.71,1.29-3.71v-5.83h-13.49l-3.99,15.57h-1.02l-3.9-15.57h-13.89v5.83c1.31.99,1.3,2.43,1.29,3.71v.33s0,17.41,0,17.41c0,1.28.02,2.71-1.29,3.71v5.83h10.52v-5.83c-1.31-.99-1.3-2.43-1.29-3.71v-.33s0-10.8,0-10.8h1.15l5.41,20.68h2.8l5.15-20.68h1.15v11.13c.01,1.28.02,2.72-1.29,3.71v5.83h12.7v-5.83h0Z"/>
      <path class="cls-1" d="m119.69,83.81h1.66v-.54h-3.94v.54h1.66v4.71h.61v-4.71h0Zm5.27,4.71l1.8-4.65h.03c-.03.45-.05.88-.05,1.26v3.38h.61v-5.25h-.91l-1.68,4.33h-.03l-1.66-4.33h-.92v5.25h.56v-3.34c0-.51-.02-.95-.05-1.32h.03l1.78,4.66h.49Z"/>
      <path class="cls-1" d="m153.41,72.95c-.61-.66-1.71-1.28-3.33-1.85-.96-.34-1.67-.66-2.14-.94-.47-.28-.8-.6-.99-.94-.2-.34-.29-.78-.29-1.31,0-.72.27-1.29.8-1.69.53-.41,1.27-.61,2.22-.61,1.2,0,2.43.27,3.7.8l.56-1.55c-1.28-.56-2.69-.84-4.21-.84s-2.64.35-3.53,1.05c-.89.7-1.33,1.64-1.33,2.83s.31,2.04.92,2.74c.61.7,1.63,1.31,3.06,1.82,1.02.36,1.79.69,2.29.98.5.29.86.6,1.07.94.21.34.32.78.32,1.31,0,.81-.3,1.43-.9,1.89-.6.45-1.5.68-2.69.68-.73,0-1.46-.08-2.21-.23-.74-.15-1.43-.36-2.06-.63v1.72c.98.47,2.38.7,4.2.7,1.68,0,3.01-.38,3.99-1.14.98-.76,1.47-1.81,1.47-3.16,0-1.05-.3-1.91-.91-2.56h0Zm11.15-7.13h4.87v-1.59h-11.52v1.59h4.87v13.78h1.79v-13.78h0Zm21.05,13.78l-6.04-15.43h-1.5l-6.07,15.43h1.81l1.89-4.89h6.16l1.91,4.89h1.85Zm-9.29-6.49l1.81-4.76c.29-.81.51-1.55.66-2.22.25.88.48,1.61.71,2.22l1.79,4.76h-4.97Zm18.5-7.28h4.87v-1.59h-11.52v1.59h4.87v13.78h1.79v-13.78h0Zm18.11,12.18h-6.78v-5.65h6.37v-1.58h-6.37v-4.95h6.78v-1.59h-8.56v15.36h8.56v-1.6h0Zm23.55-13.77v10c0,1.29-.35,2.28-1.05,2.97-.7.69-1.7,1.04-3,1.04s-2.39-.34-3.09-1.03c-.7-.69-1.05-1.67-1.05-2.95v-10.03h-1.79v9.9c0,1.77.51,3.15,1.52,4.16,1.01,1.01,2.44,1.51,4.29,1.51s3.3-.5,4.36-1.5c1.06-1,1.59-2.38,1.59-4.13v-9.94h-1.79Zm20.22,0h-1.67v8.82c-.01.44,0,1.18.05,2.2.05,1.03.08,1.63.09,1.82h-.08l-8.38-12.84h-2.02v15.36h1.65v-8.73c0-1.26-.06-2.65-.17-4.16h.08l8.4,12.89h2.04v-15.36h0Zm8.38,15.36v-15.36h-1.79v15.36h1.79Zm11.85-5.49c-.41,1.13-.74,2.26-.99,3.39-.24-1.08-.56-2.19-.97-3.33l-3.53-9.94h-1.89l5.51,15.36h1.77l5.54-15.36h-1.92l-3.51,9.88h0Zm18.48,3.89h-6.78v-5.65h6.37v-1.58h-6.37v-4.95h6.78v-1.59h-8.56v15.36h8.56v-1.6h0Zm10.76-4.79l3.72,6.39h2.11l-4.17-6.9c2.06-.71,3.09-2.09,3.09-4.12,0-1.45-.45-2.54-1.35-3.26-.9-.72-2.29-1.08-4.18-1.08h-4.21v15.36h1.79v-6.39h3.21Zm-3.21-7.41h2.32c1.32,0,2.29.22,2.88.67.6.45.9,1.18.9,2.2s-.29,1.75-.88,2.25c-.59.5-1.51.75-2.77.75h-2.45v-5.87h0Zm21.65,7.15c-.61-.66-1.71-1.28-3.33-1.85-.96-.34-1.67-.66-2.14-.94-.47-.28-.8-.6-.99-.94-.2-.34-.29-.78-.29-1.31,0-.72.27-1.29.8-1.69.53-.41,1.27-.61,2.22-.61,1.2,0,2.43.27,3.7.8l.56-1.55c-1.28-.56-2.69-.84-4.21-.84s-2.64.35-3.53,1.05c-.89.7-1.33,1.64-1.33,2.83s.31,2.04.92,2.74c.61.7,1.63,1.31,3.06,1.82,1.02.36,1.79.69,2.29.98.5.29.86.6,1.07.94.21.34.32.78.32,1.31,0,.81-.3,1.43-.9,1.89-.6.45-1.5.68-2.69.68-.73,0-1.46-.08-2.21-.23-.74-.15-1.43-.36-2.06-.63v1.72c.98.47,2.38.7,4.2.7,1.68,0,3.01-.38,3.99-1.14.98-.76,1.47-1.81,1.47-3.16,0-1.05-.3-1.91-.91-2.56h0Zm8.21,6.65v-15.36h-1.79v15.36h1.79Zm11.31-13.78h4.87v-1.59h-11.52v1.59h4.87v13.78h1.79v-13.78h0Zm9.39-1.59h-1.95l5.12,9.49v5.87h1.81v-5.96l5.13-9.41h-1.93l-4.1,7.68-4.07-7.68h0Z"/>
      <path class="cls-1" d="m161,57.25l6.06-18.4h.14c-.13,2.96-.2,4.78-.22,5.46-.02.69-.02,1.29-.02,1.82v11.12h4.64v-23.49h-6.78l-5.9,17.96h-.1l-5.56-17.96h-6.78v23.49h4.45v-10.93c0-1.25-.1-3.75-.31-7.5h.15l5.65,18.43h4.56Zm21.5,0v-23.49h-4.98v23.49h4.98Zm22.22-20.45c-2.12-2.02-5.1-3.04-8.93-3.04h-7.37v23.49h6.65c4.16,0,7.33-1.03,9.54-3.08,2.2-2.06,3.3-5.02,3.3-8.89,0-3.63-1.06-6.46-3.18-8.48h0Zm-9.19,16.34h-2.14v-15.29h2.65c4.46,0,6.68,2.52,6.68,7.57s-2.4,7.73-7.2,7.73h0Zm46.09-19.38h-4.9l-2.99,12.82c-.19.77-.41,1.78-.64,3.03-.24,1.25-.41,2.29-.51,3.12-.12-.87-.29-1.91-.51-3.12-.22-1.21-.41-2.11-.56-2.7l-3.42-13.16h-4.71l-3.42,13.16c-.2.71-.42,1.7-.65,2.98-.23,1.28-.38,2.23-.44,2.84-.24-1.74-.62-3.79-1.14-6.15l-3-12.82h-4.9l5.99,23.49h5.66l3.16-12.31c.14-.55.34-1.46.59-2.74.26-1.28.42-2.21.48-2.79.04.47.21,1.4.49,2.77.28,1.38.48,2.28.6,2.72l3.18,12.34h5.67l5.98-23.49h0Zm16.48,19.38h-8.55v-6.06h7.95v-4.08h-7.95v-5.16h8.55v-4.08h-13.53v23.49h13.53v-4.11h0Zm17.54-6.29c-.81-1.05-2.32-2.11-4.51-3.16-1.66-.79-2.71-1.34-3.16-1.65-.44-.31-.77-.62-.97-.95-.2-.33-.31-.71-.31-1.15,0-.71.25-1.28.76-1.72.5-.44,1.23-.66,2.17-.66.79,0,1.6.1,2.42.31.82.2,1.86.56,3.11,1.08l1.61-3.87c-1.21-.52-2.37-.93-3.48-1.22-1.11-.29-2.27-.43-3.49-.43-2.49,0-4.43.59-5.84,1.78-1.41,1.19-2.11,2.82-2.11,4.9,0,1.1.21,2.07.64,2.89.43.83,1,1.55,1.72,2.17.72.62,1.79,1.27,3.23,1.94,1.53.73,2.55,1.26,3.04,1.59.5.33.88.68,1.13,1.04.26.36.39.77.39,1.23,0,.82-.29,1.45-.88,1.86-.58.42-1.42.63-2.51.63-.91,0-1.91-.14-3.01-.43-1.1-.29-2.44-.79-4.03-1.49v4.63c1.93.94,4.15,1.41,6.65,1.41,2.72,0,4.84-.61,6.37-1.83,1.53-1.22,2.29-2.89,2.29-5.01,0-1.53-.41-2.83-1.22-3.88h0Zm14.54-8.94h6.38v-4.15h-17.74v4.15h6.38v19.34h4.98v-19.34h0Zm23.52,15.23h-8.55v-6.06h7.95v-4.08h-7.95v-5.16h8.55v-4.08h-13.53v23.49h13.53v-4.11h0Zm9.88-15.29h1.51c1.61,0,2.79.24,3.56.71.77.47,1.15,1.26,1.15,2.38s-.37,1.95-1.13,2.47c-.75.52-1.91.79-3.49.79h-1.61v-6.35h0Zm2.65,10.4l5.61,9.01h5.53c-1.07-1.54-3.37-4.95-6.91-10.23,1.39-.61,2.47-1.45,3.23-2.53.76-1.08,1.14-2.31,1.14-3.69,0-2.37-.77-4.13-2.3-5.29-1.53-1.16-3.89-1.74-7.09-1.74h-6.84v23.49h4.98v-9.01h2.65Zm34.93-14.48h-4.48v11.12c0,1.26.08,3.42.24,6.48h-.11l-10.2-17.59h-6.28v23.49h4.45v-11.05c0-1.34-.1-3.58-.31-6.72h.14l10.22,17.77h6.33v-23.49h0Z"/>
    </g>
  </g>
</svg>